<?xml version="1.0" standalone="no"?>
<!DOCTYPE svg PUBLIC "-//W3C//DTD SVG 20010904//EN"
 "http://www.w3.org/TR/2001/REC-SVG-20010904/DTD/svg10.dtd">
<svg version="1.0" xmlns="http://www.w3.org/2000/svg"
 width="500.000000pt" height="500.000000pt" viewBox="0 0 500.000000 500.000000"
 preserveAspectRatio="xMidYMid meet">
<metadata>
Created by potrace 1.11, written by Peter Selinger 2001-2013
</metadata>
<g transform="translate(0.000000,500.000000) scale(0.100000,-0.100000)"
fill="#000000" stroke="none">
<path d="M3370 4720 l0 -280 -52 21 c-167 66 -341 109 -553 135 -76 9 -326 10
-430 1 -77 -6 -229 -31 -266 -42 -9 -3 -26 -8 -38 -10 -101 -19 -317 -98 -439
-159 -239 -121 -410 -244 -592 -426 -284 -285 -487 -663 -559 -1040 -20 -105
-22 -115 -27 -180 -4 -36 -10 -69 -15 -74 -5 -5 -96 -9 -204 -9 l-195 0 2
-160 3 -160 200 -1 200 -1 2 -30 c9 -128 54 -338 104 -486 74 -221 249 -527
389 -679 166 -182 258 -262 436 -382 255 -172 525 -280 849 -340 99 -18 157
-22 330 -22 116 -1 238 2 273 6 153 18 414 85 537 138 l45 19 0 -279 0 -280
160 0 160 0 0 363 0 364 23 10 c12 6 60 39 107 73 354 262 600 594 744 1005
28 79 62 203 71 255 4 19 11 60 16 90 33 192 33 477 0 680 -61 371 -234 741
-481 1024 -108 124 -297 288 -427 373 l-53 34 0 364 0 365 -160 0 -160 0 0
-280z m-625 -444 c33 -4 71 -9 85 -11 14 -3 41 -7 60 -10 92 -15 293 -80 407
-132 l54 -25 -95 -66 c-53 -37 -174 -120 -269 -185 -199 -137 -329 -226 -551
-379 -87 -60 -164 -112 -171 -114 -9 -4 -11 35 -11 161 l1 165 -210 0 -210 0
0 -506 c0 -285 -4 -508 -9 -511 -7 -5 -1001 -8 -1089 -4 -10 1 -16 4 -14 9 3
4 8 34 11 66 18 166 84 385 167 548 181 360 450 626 822 810 115 57 157 75
292 118 202 65 503 92 730 66z m977 -422 c110 -90 254 -250 333 -369 66 -99
175 -300 175 -323 0 -5 6 -22 14 -38 15 -29 65 -191 71 -229 2 -11 8 -44 14
-74 32 -159 35 -465 6 -611 -3 -14 -8 -41 -11 -60 -12 -66 -56 -215 -90 -303
-105 -273 -305 -545 -534 -726 l-51 -40 -113 77 c-62 42 -120 88 -128 102 -9
14 -51 77 -95 140 -44 63 -122 179 -175 257 l-96 141 -75 -99 -75 -99 -318
219 -319 219 -1 459 0 459 694 477 c382 262 697 477 700 477 3 0 36 -25 74
-56z m-1902 -1520 c13 -3 15 -66 14 -501 0 -274 1 -503 3 -508 3 -8 351 -13
408 -6 6 1 10 63 9 166 l0 165 27 -18 c15 -9 115 -77 222 -151 l195 -135 -69
-90 c-38 -50 -69 -94 -69 -97 0 -4 17 -11 38 -17 506 -134 742 -211 742 -242
0 -18 -311 -132 -398 -146 -20 -3 -39 -7 -42 -9 -5 -3 -24 -6 -150 -24 -110
-16 -401 -6 -525 17 -200 37 -345 86 -512 172 -195 100 -303 174 -435 299
-297 281 -479 629 -542 1033 -7 48 -11 89 -9 91 5 5 1074 6 1093 1z"/>
</g>
</svg>
